<svg width="16" height="16" viewBox="0 0 16 16" fill="none" xmlns="http://www.w3.org/2000/svg">
<g id="bars-filter">
<path id="Vector" d="M2.16663 3.41667C2.16663 3.18733 2.35396 3 2.58329 3H13.4166C13.646 3 13.8333 3.18733 13.8333 3.41667C13.8333 3.646 13.646 3.83333 13.4166 3.83333H2.58329C2.35396 3.83333 2.16663 3.646 2.16663 3.41667ZM3.83329 7.58333C3.83329 7.354 4.02063 7.16667 4.24996 7.16667H11.75C11.9793 7.16667 12.1666 7.354 12.1666 7.58333C12.1666 7.81267 11.9793 8 11.75 8H4.24996C4.02063 8 3.83329 7.81267 3.83329 7.58333ZM9.66663 11.75C9.66663 11.9793 9.47929 12.1667 9.24996 12.1667H6.74996C6.52063 12.1667 6.33329 11.9793 6.33329 11.75C6.33329 11.5207 6.52063 11.3333 6.74996 11.3333H9.24996C9.47929 11.3333 9.66663 11.5207 9.66663 11.75Z" fill="#F44848"/>
</g>
</svg>
